<svg width="40" height="28" viewBox="0 0 40 28" fill="none" xmlns="http://www.w3.org/2000/svg">
<path d="M39.4891 0.514013C39.6511 0.676537 39.7795 0.869608 39.8672 1.08217C39.9549 1.29473 40 1.5226 40 1.75274C40 1.98287 39.9549 2.21074 39.8672 2.42331C39.7795 2.63587 39.6511 2.82894 39.4891 2.99146L15.1445 27.486C14.983 27.6489 14.7911 27.7782 14.5799 27.8664C14.3686 27.9546 14.1421 28 13.9134 28C13.6847 28 13.4582 27.9546 13.2469 27.8664C13.0357 27.7782 12.8438 27.6489 12.6823 27.486L0.509955 15.2387C0.183436 14.9102 0 14.4646 0 14C0 13.5354 0.183436 13.0898 0.509955 12.7613C0.836474 12.4327 1.27933 12.2482 1.7411 12.2482C2.20286 12.2482 2.64572 12.4327 2.97224 12.7613L13.9134 23.7733L37.0269 0.514013C37.1884 0.351078 37.3803 0.221808 37.5915 0.133605C37.8028 0.0454019 38.0293 0 38.258 0C38.4867 0 38.7132 0.0454019 38.9245 0.133605C39.1357 0.221808 39.3276 0.351078 39.4891 0.514013Z" fill="black"/>
</svg>
