<svg width="57" height="58" viewBox="0 0 57 58" fill="none" xmlns="http://www.w3.org/2000/svg">
<path d="M56.4948 23.7739C56.8338 25.7203 57.0028 27.6924 57 29.6679C57 38.4909 53.8381 45.9509 48.3359 51.0004H48.3431C43.5313 55.4336 36.917 58 29.0742 58C21.3632 58 13.9681 54.9448 8.51564 49.5064C3.06317 44.068 0 36.692 0 29.001C0 21.3099 3.06317 13.9339 8.51564 8.49554C13.9681 3.05716 21.3632 0.00191353 29.0742 0.00191353C36.2916 -0.0823952 43.2618 2.6221 48.5248 7.54891L40.2242 15.8281C37.2236 12.9753 33.2191 11.413 29.0742 11.4783C21.4895 11.4783 15.0459 16.5821 12.749 23.4549C11.5312 27.0562 11.5312 30.9566 12.749 34.5579H12.7599C15.0677 41.4198 21.5004 46.5236 29.0851 46.5236C33.0028 46.5236 36.3682 45.5232 38.9776 43.7542H38.9667C40.4819 42.753 41.7779 41.4561 42.7767 39.9415C43.7755 38.427 44.4562 36.7263 44.7779 34.9421H29.0742V23.7775H56.4948V23.7739Z" fill="black"/>
</svg>
